<?xml version="1.0" encoding="UTF-8"?>
<svg xmlns="http://www.w3.org/2000/svg" width="255" height="69" viewBox="0 0 255 69" fill="none">
  <g clip-path="url(#clip0_22_766)">
    <path d="M88.9408 44.8292C88.9408 52.9876 82.9556 58.9962 74.4959 58.9962C66.0362 58.9962 60.0717 52.9853 60.0717 44.8292C60.0717 36.673 66.0385 30.6621 74.4959 30.6621C82.9533 30.6621 88.9408 36.673 88.9408 44.8292ZM65.7834 44.8292C65.7834 50.1364 69.4527 53.7667 74.4982 53.7667C79.5437 53.7667 83.2129 50.1364 83.2129 44.8292C83.2129 39.5219 79.562 35.8916 74.4982 35.8916C69.4343 35.8916 65.7834 39.5219 65.7834 44.8292Z" fill="#EEEEEE"></path>
    <path d="M106.43 39.4808L105.665 44.5344C104.822 44.1643 103.604 43.929 102.563 43.929C100.187 43.929 98.5584 45.3729 98.5584 48.183V58.4867H93.4371V39.5768H98.4022V41.6444C99.5992 39.8692 101.424 39.0696 103.76 39.0696C104.858 39.0696 105.722 39.2249 106.43 39.4785V39.4808Z" fill="#EEEEEE"></path>
    <path d="M127.997 58.4891H122.993V56.4009C121.757 57.9225 119.912 58.978 117.302 58.978C112.061 58.978 108.098 54.7034 108.098 49.0261C108.098 43.3488 112.061 39.0742 117.302 39.0742C119.912 39.0742 121.736 40.1274 122.993 41.6696V39.5814H127.997V58.4914V58.4891ZM113.339 49.0238C113.339 51.9116 115.243 54.2351 118.244 54.2351C121.245 54.2351 123.149 52.0098 123.149 49.0238C123.149 46.0378 121.167 43.8126 118.244 43.8126C115.322 43.8126 113.339 46.1338 113.339 49.0238Z" fill="#EEEEEE"></path>
    <path d="M151.355 46.4489V58.4889H146.233V48.087C146.233 45.3545 144.859 43.8512 142.525 43.8512C140.326 43.8512 138.502 45.2769 138.502 48.1258V58.4889H133.381V39.579H138.366V41.8042C139.72 39.7937 141.801 39.0718 143.959 39.0718C148.276 39.0718 151.357 42.0578 151.357 46.4489H151.355Z" fill="#EEEEEE"></path>
    <path d="M170.039 41.6878V39.5813H175.063V56.9309C175.063 63.0012 171.079 66.668 164.8 66.668C161.797 66.668 158.617 65.8867 156.478 64.3857L158.302 60.2299C160.207 61.4796 162.307 62.1627 164.582 62.1627C167.762 62.1627 169.999 60.4058 169.999 57.1479V55.8205C168.704 57.4015 166.781 58.377 164.152 58.377C159.52 58.377 155.398 54.532 155.398 48.7359C155.398 42.9397 159.52 39.0764 164.152 39.0764C166.801 39.0764 168.745 40.0908 170.041 41.6923L170.039 41.6878ZM160.657 48.7313C160.657 51.4637 162.521 53.689 165.446 53.689C168.37 53.689 170.215 51.5414 170.215 48.7313C170.215 45.9212 168.292 43.7554 165.446 43.7554C162.599 43.7554 160.657 45.9806 160.657 48.7313Z" fill="#EEEEEE"></path>
    <path d="M198.124 49.0055C198.124 49.5904 198.085 50.2941 198.025 50.7236H184.543C185.092 53.456 187.015 54.6463 189.43 54.6463C191.077 54.6463 192.865 53.9838 194.239 52.8323L197.242 56.1108C195.082 58.0824 192.337 58.9803 189.136 58.9803C183.307 58.9803 179.266 55.0393 179.266 49.0855C179.266 43.1317 183.19 39.0742 188.883 39.0742C194.577 39.0742 198.108 43.1135 198.126 49.0078L198.124 49.0055ZM184.562 47.2487H192.98C192.509 44.8292 191.036 43.463 188.84 43.463C186.425 43.463 185.012 44.9069 184.562 47.2487Z" fill="#EEEEEE"></path>
    <path d="M209.035 49.8828V58.489H201.577V31.167H213.824C220.811 31.167 224.48 34.9915 224.48 40.6117C224.48 46.2319 220.811 49.8805 213.92 49.8805H209.033L209.035 49.8828ZM209.035 37.8221V43.383H213.745C215.59 43.383 216.944 42.3869 216.944 40.6117C216.944 38.8365 215.59 37.8221 213.745 37.8221H209.035Z" fill="white"></path>
    <path d="M243.324 58.489H234.532L224.523 31.167H232.432L238.987 50.7395L245.542 31.167H253.333L243.324 58.489Z" fill="white"></path>
    <path d="M27.3196 68.4613C24.7441 68.4613 22.265 67.5977 20.2293 65.9733L6.42543 54.9613C1.54996 51.0706 0.754996 43.9676 4.6471 39.1059C6.81142 36.3369 12.946 28.5646 15.8133 25.2679C19.7491 20.4793 26.8647 19.7253 31.7264 23.6047L45.528 34.6166C47.8968 36.506 49.3833 39.1996 49.7142 42.1993C50.045 45.2013 49.1811 48.1508 47.281 50.504L36.2067 64.2301C34.3066 66.5856 31.5977 68.0637 28.581 68.3927C28.1583 68.4384 27.7378 68.4613 27.3196 68.4613ZM24.6154 30.7853C24.1329 30.7853 23.655 30.9955 23.3287 31.3976L23.2116 31.5392C20.8037 34.3013 15.2435 41.3015 12.3026 45.0643L12.2544 45.1237C11.6869 45.8273 11.7995 46.86 12.5094 47.4243L26.311 58.4363C26.7728 58.8064 27.2668 58.8132 27.5218 58.7858C27.7746 58.7584 28.2548 58.6442 28.627 58.1827L39.7013 44.4566C40.0735 43.9973 40.0804 43.5061 40.0528 43.2525C40.0253 42.999 39.9104 42.5237 39.4463 42.1536L25.6424 31.1417C25.3391 30.8995 24.9761 30.783 24.6131 30.783L24.6154 30.7853Z" fill="white"></path>
    <path d="M30.2973 5.55152C26.6511 9.17725 25.2725 14.2057 26.1617 18.8915C30.874 19.7757 35.931 18.4072 39.5773 14.7792C43.2235 11.1535 44.6021 6.12497 43.7129 1.43917C39.0006 0.555018 33.9436 1.92352 30.2973 5.55152Z" fill="white"></path>
    <path d="M31.3928 41.7782L24.0378 38.9385C23.4937 38.7284 22.8813 38.9967 22.6701 39.5378L19.8143 46.8513C19.6031 47.3924 19.8729 48.0013 20.417 48.2114L27.772 51.051C28.3161 51.2611 28.9285 50.9928 29.1397 50.4517L31.9955 43.1382C32.2067 42.5972 31.9369 41.9882 31.3928 41.7782Z" fill="url(#paint0_linear_22_766)"></path>
  </g>
  <defs>
    <linearGradient id="paint0_linear_22_766" x1="27.9539" y1="51.6889" x2="24.4729" y2="40.1705" gradientUnits="userSpaceOnUse">
      <stop stop-color="#C6C6C6" stop-opacity="0"></stop>
      <stop offset="1" stop-color="#F6F6F6"></stop>
    </linearGradient>
    <clipPath id="clip0_22_766">
      <rect width="254" height="68" fill="white" transform="translate(0.755005 0.820068)"></rect>
    </clipPath>
  </defs>
</svg>
