<?xml version="1.0" encoding="UTF-8"?>
<svg xmlns="http://www.w3.org/2000/svg" xmlns:xlink="http://www.w3.org/1999/xlink" id="Layer_1" data-name="Layer 1" viewBox="0 0 1105.51 297.64">
  <defs>
    <style>
      .cls-1 {
        fill: #febc11;
      }

      .cls-2 {
        fill: #231f20;
      }

      .cls-3 {
        fill: url(#linear-gradient);
      }

      .cls-4 {
        fill: #89c64b;
      }

      .cls-5 {
        fill: #939598;
      }
    </style>
    <linearGradient id="linear-gradient" x1="277.81" y1="250.78" x2="265.82" y2="199.52" gradientTransform="translate(-229.32 107.32) rotate(-24.96)" gradientUnits="userSpaceOnUse">
      <stop offset="0" stop-color="#000" stop-opacity="0"></stop>
      <stop offset="1" stop-color="#000"></stop>
    </linearGradient>
  </defs>
  <g>
    <path class="cls-5" d="M383.82,192.63c0,35.71-26.05,62.01-62.87,62.01s-62.78-26.31-62.78-62.01,25.97-62.01,62.78-62.01,62.87,26.31,62.87,62.01ZM283.03,192.63c0,23.23,15.97,39.12,37.93,39.12s37.93-15.89,37.93-39.12-15.89-39.12-37.93-39.12-37.93,15.89-37.93,39.12Z"></path>
    <path class="cls-5" d="M459.94,169.22l-3.33,22.12c-3.67-1.62-8.97-2.65-13.5-2.65-10.34,0-17.43,6.32-17.43,18.62v45.1h-22.29v-82.77h21.61v9.05c5.21-7.77,13.15-11.27,23.32-11.27,4.78,0,8.54.68,11.62,1.79Z"></path>
    <path class="cls-5" d="M553.81,252.42h-21.78v-9.14c-5.38,6.66-13.41,11.28-24.77,11.28-22.81,0-40.06-18.71-40.06-43.56s17.25-43.56,40.06-43.56c11.36,0,19.3,4.61,24.77,11.36v-9.14h21.78v82.77ZM490.01,210.99c0,12.64,8.29,22.81,21.35,22.81s21.35-9.74,21.35-22.81-8.63-22.81-21.35-22.81-21.35,10.16-21.35,22.81Z"></path>
    <path class="cls-5" d="M655.47,199.72v52.7h-22.29v-45.53c0-11.96-5.98-18.54-16.14-18.54-9.57,0-17.51,6.24-17.51,18.71v45.36h-22.29v-82.77h21.7v9.74c5.89-8.8,14.95-11.96,24.34-11.96,18.79,0,32.2,13.07,32.2,32.29Z"></path>
    <path class="cls-5" d="M736.79,178.88v-9.22h21.87v75.94c0,26.57-17.34,42.62-44.67,42.62-13.07,0-26.91-3.42-36.22-9.99l7.94-18.19c8.29,5.47,17.43,8.46,27.33,8.46,13.84,0,23.58-7.69,23.58-21.95v-5.81c-5.64,6.92-14.01,11.19-25.45,11.19-20.16,0-38.1-16.83-38.1-42.2s17.94-42.28,38.1-42.28c11.53,0,19.99,4.44,25.63,11.45ZM695.96,209.71c0,11.96,8.11,21.7,20.84,21.7s20.76-9.4,20.76-21.7-8.37-21.78-20.76-21.78-20.84,9.74-20.84,21.78Z"></path>
    <path class="cls-5" d="M859.03,210.91c0,2.56-.17,5.64-.43,7.52h-58.68c2.39,11.96,10.76,17.17,21.27,17.17,7.17,0,14.95-2.9,20.93-7.94l13.07,14.35c-9.4,8.63-21.35,12.56-35.28,12.56-25.37,0-42.96-17.25-42.96-43.31s17.08-43.82,41.86-43.82,40.15,17.68,40.23,43.48ZM800,203.22h36.64c-2.05-10.59-8.46-16.57-18.02-16.57-10.51,0-16.66,6.32-18.62,16.57Z"></path>
    <path class="cls-2" d="M906.52,214.75v37.67h-32.46v-119.59h53.3c30.41,0,46.38,16.74,46.38,41.34s-15.97,40.57-45.96,40.57h-21.27ZM906.52,161.96v24.34h20.5c8.03,0,13.92-4.36,13.92-12.13s-5.89-12.21-13.92-12.21h-20.5Z"></path>
    <path class="cls-2" d="M1055.76,252.42h-38.27l-43.56-119.59h34.42l28.53,85.67,28.53-85.67h33.91l-43.56,119.59Z"></path>
  </g>
  <g>
    <path class="cls-1" d="M115.62,296.07c-11.21,0-22-3.78-30.86-10.89l-60.08-48.2C3.46,219.95,0,188.86,16.94,167.58c9.42-12.12,36.12-46.14,48.6-60.57,17.13-20.96,48.1-24.26,69.26-7.28l60.07,48.2c10.31,8.27,16.78,20.06,18.22,33.19,1.44,13.14-2.32,26.05-10.59,36.35l-48.2,60.08c-8.27,10.31-20.06,16.78-33.19,18.22-1.84.2-3.67.3-5.49.3ZM103.85,131.16c-2.1,0-4.18.92-5.6,2.68l-.51.62c-10.48,12.09-34.68,42.73-47.48,59.2l-.21.26c-2.47,3.08-1.98,7.6,1.11,10.07l60.07,48.2c2.01,1.62,4.16,1.65,5.27,1.53,1.1-.12,3.19-.62,4.81-2.64l48.2-60.08c1.62-2.01,1.65-4.16,1.53-5.27s-.62-3.19-2.64-4.81l-60.08-48.2c-1.32-1.06-2.9-1.57-4.48-1.57Z"></path>
    <path class="cls-4" d="M128.58,20.71c-15.87,15.87-21.87,37.88-18,58.39,20.51,3.87,42.52-2.12,58.39-18,15.87-15.87,21.87-37.88,18-58.39-20.51-3.87-42.52,2.12-58.39,18Z"></path>
  </g>
  <rect class="cls-3" x="87.68" y="171.59" width="43.54" height="43.54" rx="4.6" ry="4.6" transform="translate(77.42 -26.51) rotate(21.22)"></rect>
</svg>
